<mxfile host="65bd71144e">
    <diagram id="7pBT7RrQmcITjA7JRtna" name="Page-1">
        <mxGraphModel dx="1787" dy="968" grid="0" gridSize="10" guides="1" tooltips="1" connect="1" arrows="1" fold="1" page="0" pageScale="1" pageWidth="850" pageHeight="1100" math="0" shadow="0">
            <root>
                <mxCell id="0"/>
                <mxCell id="1" parent="0"/>
                <mxCell id="15" value="&lt;table style=&quot;border-collapse: collapse; width: 1160.45px; margin-bottom: 0px; color: rgb(33, 37, 41); font-family: Bangla759, Montserrat, sans-serif; font-size: 24px; background-color: rgb(255, 255, 255);&quot; class=&quot;table table--light style--two&quot;&gt;&lt;thead style=&quot;box-sizing: border-box;&quot;&gt;&lt;tr style=&quot;box-sizing: border-box;&quot;&gt;&lt;th style=&quot;box-sizing: border-box; padding: 15px 25px; vertical-align: bottom; border: none; font-size: 0.75rem; color: rgb(255, 255, 255); background-color: rgb(115, 103, 240);&quot;&gt;S.N.&lt;/th&gt;&lt;th style=&quot;box-sizing: border-box; padding: 15px 25px; vertical-align: bottom; border: none; font-size: 0.75rem; color: rgb(255, 255, 255); background-color: rgb(115, 103, 240);&quot;&gt;Loan Plan&lt;/th&gt;&lt;th style=&quot;box-sizing: border-box; padding: 15px 25px; vertical-align: bottom; border: none; font-size: 0.75rem; color: rgb(255, 255, 255); background-color: rgb(115, 103, 240);&quot;&gt;Total Payable&lt;/th&gt;&lt;th style=&quot;box-sizing: border-box; padding: 15px 25px; vertical-align: bottom; border: none; font-size: 0.75rem; color: rgb(255, 255, 255); background-color: rgb(115, 103, 240);&quot;&gt;Applied Date&lt;/th&gt;&lt;th style=&quot;box-sizing: border-box; padding: 15px 25px; vertical-align: bottom; border: none; font-size: 0.75rem; color: rgb(255, 255, 255); background-color: rgb(115, 103, 240);&quot;&gt;Installment&lt;/th&gt;&lt;th style=&quot;box-sizing: border-box; padding: 15px 25px; vertical-align: bottom; border: none; font-size: 0.75rem; color: rgb(255, 255, 255); background-color: rgb(115, 103, 240);&quot;&gt;Status&lt;/th&gt;&lt;th style=&quot;box-sizing: border-box; padding: 15px 25px; vertical-align: bottom; border: none; font-size: 0.75rem; color: rgb(255, 255, 255); background-color: rgb(115, 103, 240);&quot;&gt;Action&lt;/th&gt;&lt;/tr&gt;&lt;/thead&gt;&lt;/table&gt;" style="text;html=1;align=left;verticalAlign=middle;resizable=0;points=[];autosize=1;strokeColor=none;fillColor=none;" vertex="1" parent="1">
                    <mxGeometry x="-288" y="69" width="1178" height="56" as="geometry"/>
                </mxCell>
                <mxCell id="16" value="&lt;table style=&quot;box-sizing: border-box; border-collapse: collapse; width: 990.92px; margin-bottom: 0px; color: rgb(33, 37, 41); font-family: Bangla291, Montserrat, sans-serif; font-size: 24px; font-style: normal; font-variant-ligatures: normal; font-variant-caps: normal; font-weight: 400; letter-spacing: normal; orphans: 2; text-transform: none; widows: 2; word-spacing: 0px; -webkit-text-stroke-width: 0px; background-color: rgb(255, 255, 255); text-decoration-thickness: initial; text-decoration-style: initial; text-decoration-color: initial;&quot; class=&quot;table table--light style--two&quot;&gt;&lt;thead style=&quot;box-sizing: border-box;&quot;&gt;&lt;tr style=&quot;box-sizing: border-box;&quot;&gt;&lt;th style=&quot;box-sizing: border-box; padding: 15px 25px; vertical-align: bottom; border: none; font-size: 0.75rem; font-weight: 600; color: rgb(255, 255, 255); background-color: rgb(115, 103, 240);&quot;&gt;S.N.&lt;/th&gt;&lt;th style=&quot;box-sizing: border-box; padding: 15px 25px; vertical-align: bottom; border: none; font-size: 0.75rem; color: rgb(255, 255, 255); background-color: rgb(115, 103, 240);&quot;&gt;Loan Plan&lt;/th&gt;&lt;th style=&quot;box-sizing: border-box; padding: 15px 25px; vertical-align: bottom; border: none; font-size: 0.75rem; color: rgb(255, 255, 255); background-color: rgb(115, 103, 240);&quot;&gt;Total Payable&lt;/th&gt;&lt;th style=&quot;box-sizing: border-box; padding: 15px 25px; vertical-align: bottom; border: none; font-size: 0.75rem; color: rgb(255, 255, 255); background-color: rgb(115, 103, 240);&quot;&gt;Paid&lt;/th&gt;&lt;th style=&quot;box-sizing: border-box; padding: 15px 25px; vertical-align: bottom; border: none; font-size: 0.75rem; color: rgb(255, 255, 255); background-color: rgb(115, 103, 240);&quot;&gt;Installment&lt;/th&gt;&lt;th style=&quot;box-sizing: border-box; padding: 15px 25px; vertical-align: bottom; border: none; font-size: 0.75rem; color: rgb(255, 255, 255); background-color: rgb(115, 103, 240);&quot;&gt;Status&lt;/th&gt;&lt;/tr&gt;&lt;/thead&gt;&lt;/table&gt;" style="text;whiteSpace=wrap;html=1;align=left;" vertex="1" parent="1">
                    <mxGeometry x="-288" y="169" width="547" height="66" as="geometry"/>
                </mxCell>
                <mxCell id="17" value="&lt;table style=&quot;box-sizing: border-box; border-collapse: collapse; width: 984.861px; margin-bottom: 0px; color: rgb(33, 37, 41); font-family: Bangla626, Montserrat, sans-serif; font-size: 24px; font-style: normal; font-variant-ligatures: normal; font-variant-caps: normal; font-weight: 400; letter-spacing: normal; orphans: 2; text-transform: none; widows: 2; word-spacing: 0px; -webkit-text-stroke-width: 0px; background-color: rgb(255, 255, 255); text-decoration-thickness: initial; text-decoration-style: initial; text-decoration-color: initial;&quot; class=&quot;table table--light style--two&quot;&gt;&lt;thead style=&quot;box-sizing: border-box;&quot;&gt;&lt;tr style=&quot;box-sizing: border-box;&quot;&gt;&lt;th style=&quot;box-sizing: border-box; padding: 15px 25px; vertical-align: bottom; border: none; font-size: 0.75rem; font-weight: 600; color: rgb(255, 255, 255); background-color: rgb(115, 103, 240);&quot;&gt;S.N.&lt;/th&gt;&lt;th style=&quot;box-sizing: border-box; padding: 15px 25px; vertical-align: bottom; border: none; font-size: 0.75rem; color: rgb(255, 255, 255); background-color: rgb(115, 103, 240);&quot;&gt;Loan Plan&lt;/th&gt;&lt;th style=&quot;box-sizing: border-box; padding: 15px 25px; vertical-align: bottom; border: none; font-size: 0.75rem; color: rgb(255, 255, 255); background-color: rgb(115, 103, 240);&quot;&gt;Total Payable&lt;/th&gt;&lt;th style=&quot;box-sizing: border-box; padding: 15px 25px; vertical-align: bottom; border: none; font-size: 0.75rem; color: rgb(255, 255, 255); background-color: rgb(115, 103, 240);&quot;&gt;Paid&lt;/th&gt;&lt;th style=&quot;box-sizing: border-box; padding: 15px 25px; vertical-align: bottom; border: none; font-size: 0.75rem; color: rgb(255, 255, 255); background-color: rgb(115, 103, 240);&quot;&gt;Installment&lt;/th&gt;&lt;th style=&quot;box-sizing: border-box; padding: 15px 25px; vertical-align: bottom; border: none; font-size: 0.75rem; color: rgb(255, 255, 255); background-color: rgb(115, 103, 240);&quot;&gt;Status&lt;/th&gt;&lt;/tr&gt;&lt;/thead&gt;&lt;/table&gt;" style="text;whiteSpace=wrap;html=1;align=left;" vertex="1" parent="1">
                    <mxGeometry x="-291.0033333333333" y="271.99668701171873" width="550" height="66" as="geometry"/>
                </mxCell>
                <mxCell id="19" value="&lt;table style=&quot;box-sizing: border-box; border-collapse: collapse; width: 990.833px; margin-bottom: 0px; color: rgb(33, 37, 41); font-family: Bangla826, Montserrat, sans-serif; font-size: 24px; font-style: normal; font-variant-ligatures: normal; font-variant-caps: normal; font-weight: 400; letter-spacing: normal; orphans: 2; text-align: left; text-transform: none; widows: 2; word-spacing: 0px; -webkit-text-stroke-width: 0px; background-color: rgb(255, 255, 255); text-decoration-thickness: initial; text-decoration-style: initial; text-decoration-color: initial;&quot; class=&quot;table table--light style--two&quot;&gt;&lt;thead style=&quot;box-sizing: border-box;&quot;&gt;&lt;tr style=&quot;box-sizing: border-box;&quot;&gt;&lt;th style=&quot;box-sizing: border-box; text-align: left; padding: 15px 25px; vertical-align: bottom; border: none; font-size: 0.75rem; font-weight: 600; color: rgb(255, 255, 255); background-color: rgb(115, 103, 240);&quot;&gt;S.N.&lt;/th&gt;&lt;th style=&quot;box-sizing: border-box; text-align: center; padding: 15px 25px; vertical-align: bottom; border: none; font-size: 0.75rem; color: rgb(255, 255, 255); background-color: rgb(115, 103, 240);&quot;&gt;Loan Plan&lt;/th&gt;&lt;th style=&quot;box-sizing: border-box; text-align: center; padding: 15px 25px; vertical-align: bottom; border: none; font-size: 0.75rem; color: rgb(255, 255, 255); background-color: rgb(115, 103, 240);&quot;&gt;Total Payable&lt;/th&gt;&lt;th style=&quot;box-sizing: border-box; text-align: center; padding: 15px 25px; vertical-align: bottom; border: none; font-size: 0.75rem; color: rgb(255, 255, 255); background-color: rgb(115, 103, 240);&quot;&gt;Paid&lt;/th&gt;&lt;th style=&quot;box-sizing: border-box; text-align: center; padding: 15px 25px; vertical-align: bottom; border: none; font-size: 0.75rem; color: rgb(255, 255, 255); background-color: rgb(115, 103, 240);&quot;&gt;Installment&lt;/th&gt;&lt;th style=&quot;box-sizing: border-box; text-align: center; padding: 15px 25px; vertical-align: bottom; border: none; font-size: 0.75rem; color: rgb(255, 255, 255); background-color: rgb(115, 103, 240);&quot;&gt;Status&lt;/th&gt;&lt;/tr&gt;&lt;/thead&gt;&lt;/table&gt;" style="text;whiteSpace=wrap;html=1;" vertex="1" parent="1">
                    <mxGeometry x="-291.0066666666665" y="385.00331298828127" width="550" height="66" as="geometry"/>
                </mxCell>
                <mxCell id="20" value="&lt;table style=&quot;box-sizing: border-box; border-collapse: collapse; width: 1012.62px; margin-bottom: 0px; color: rgb(33, 37, 41); font-family: Bangla635, Montserrat, sans-serif; font-size: 24px; font-style: normal; font-variant-ligatures: normal; font-variant-caps: normal; font-weight: 400; letter-spacing: normal; orphans: 2; text-align: left; text-transform: none; widows: 2; word-spacing: 0px; -webkit-text-stroke-width: 0px; background-color: rgb(255, 255, 255); text-decoration-thickness: initial; text-decoration-style: initial; text-decoration-color: initial;&quot; class=&quot;table table--light style--two&quot;&gt;&lt;thead style=&quot;box-sizing: border-box;&quot;&gt;&lt;tr style=&quot;box-sizing: border-box;&quot;&gt;&lt;th style=&quot;box-sizing: border-box; text-align: left; padding: 15px 25px; vertical-align: bottom; border: none; font-size: 0.75rem; font-weight: 600; color: rgb(255, 255, 255); background-color: rgb(115, 103, 240);&quot;&gt;S.N.&lt;/th&gt;&lt;th style=&quot;box-sizing: border-box; text-align: center; padding: 15px 25px; vertical-align: bottom; border: none; font-size: 0.75rem; color: rgb(255, 255, 255); background-color: rgb(115, 103, 240);&quot;&gt;Loan Plan&lt;/th&gt;&lt;th style=&quot;box-sizing: border-box; text-align: center; padding: 15px 25px; vertical-align: bottom; border: none; font-size: 0.75rem; color: rgb(255, 255, 255); background-color: rgb(115, 103, 240);&quot;&gt;Total Payable&lt;/th&gt;&lt;th style=&quot;box-sizing: border-box; text-align: center; padding: 15px 25px; vertical-align: bottom; border: none; font-size: 0.75rem; color: rgb(255, 255, 255); background-color: rgb(115, 103, 240);&quot;&gt;Paid&lt;/th&gt;&lt;th style=&quot;box-sizing: border-box; text-align: center; padding: 15px 25px; vertical-align: bottom; border: none; font-size: 0.75rem; color: rgb(255, 255, 255); background-color: rgb(115, 103, 240);&quot;&gt;Installment&lt;/th&gt;&lt;th style=&quot;box-sizing: border-box; text-align: center; padding: 15px 25px; vertical-align: bottom; border: none; font-size: 0.75rem; color: rgb(255, 255, 255); background-color: rgb(115, 103, 240);&quot;&gt;Status&lt;/th&gt;&lt;/tr&gt;&lt;/thead&gt;&lt;/table&gt;" style="text;whiteSpace=wrap;html=1;" vertex="1" parent="1">
                    <mxGeometry x="-291.003292643229" y="462.00331298828127" width="550" height="66" as="geometry"/>
                </mxCell>
                <mxCell id="21" value="&lt;h4 style=&quot;box-sizing: border-box; margin: 0px 0px 20px; font-weight: 500; line-height: 1.4; font-size: 1.25rem; color: rgb(52, 73, 94); font-family: Bangla808, Montserrat, sans-serif; font-style: normal; font-variant-ligatures: normal; font-variant-caps: normal; letter-spacing: normal; orphans: 2; text-align: left; text-indent: 0px; text-transform: none; widows: 2; word-spacing: 0px; -webkit-text-stroke-width: 0px; background-color: rgb(255, 255, 255); text-decoration-thickness: initial; text-decoration-style: initial; text-decoration-color: initial;&quot; class=&quot;package-name mb-20&quot;&gt;Eagan Greene&lt;/h4&gt;&lt;span style=&quot;box-sizing: border-box; margin-bottom: 0px; font-size: 52px; font-family: Bangla808, Montserrat, sans-serif; font-style: normal; font-variant-ligatures: normal; font-variant-caps: normal; letter-spacing: normal; orphans: 2; text-align: left; text-indent: 0px; text-transform: none; widows: 2; word-spacing: 0px; -webkit-text-stroke-width: 0px; background-color: rgb(255, 255, 255); text-decoration-thickness: initial; text-decoration-style: initial; text-decoration-color: initial; color: rgb(16, 22, 58) !important; font-weight: 700 !important;&quot; class=&quot;price text--dark font-weight-bold&quot;&gt;$5.00&lt;/span&gt;&lt;span style=&quot;color: rgb(33, 37, 41); font-family: Bangla808, Montserrat, sans-serif; font-size: 24px; font-style: normal; font-variant-ligatures: normal; font-variant-caps: normal; font-weight: 400; letter-spacing: normal; orphans: 2; text-align: left; text-indent: 0px; text-transform: none; widows: 2; word-spacing: 0px; -webkit-text-stroke-width: 0px; background-color: rgb(255, 255, 255); text-decoration-thickness: initial; text-decoration-style: initial; text-decoration-color: initial; float: none; display: inline !important;&quot;&gt;&lt;/span&gt;&lt;p style=&quot;box-sizing: border-box; margin-top: 0px; margin-bottom: 0px; color: rgb(91, 110, 136); font-size: 0.875rem; line-height: 1.7; font-weight: 400; font-family: Bangla808, Montserrat, sans-serif; font-style: normal; font-variant-ligatures: normal; font-variant-caps: normal; letter-spacing: normal; orphans: 2; text-align: left; text-indent: 0px; text-transform: none; widows: 2; word-spacing: 0px; -webkit-text-stroke-width: 0px; background-color: rgb(255, 255, 255); text-decoration-thickness: initial; text-decoration-style: initial; text-decoration-color: initial;&quot;&gt;Monthly&lt;/p&gt;&lt;ul style=&quot;box-sizing: border-box; padding: 0px; margin-right: 0px; margin-left: 0px; list-style: none; display: flex; flex-direction: column; border-radius: 0px; color: rgb(33, 37, 41); font-family: Bangla808, Montserrat, sans-serif; font-size: 24px; font-style: normal; font-variant-ligatures: normal; font-variant-caps: normal; font-weight: 400; letter-spacing: normal; orphans: 2; text-align: left; text-indent: 0px; text-transform: none; widows: 2; word-spacing: 0px; -webkit-text-stroke-width: 0px; background-color: rgb(255, 255, 255); text-decoration-thickness: initial; text-decoration-style: initial; text-decoration-color: initial; margin-top: 1.5rem !important; margin-bottom: 1.5rem !important;&quot; class=&quot;list-group list-group-flush my-4&quot;&gt;&lt;li style=&quot;box-sizing: border-box; color: rgb(91, 110, 136); margin-bottom: 0px; font-size: 0.875rem; position: relative; display: flex !important; padding-top: 0.75rem; padding-right: 0px !important; padding-bottom: 0.75rem; padding-left: 0px !important; background-color: rgb(255, 255, 255); border-width: 0px 0px 1px; border-style: solid; border-color: rgba(0, 0, 0, 0.125); border-image: initial; justify-content: space-between !important; align-items: center !important; border-top-left-radius: inherit; border-top-right-radius: inherit;&quot; class=&quot;list-group-item d-flex justify-content-between align-items-center px-0&quot;&gt;Loan amount&lt;span style=&quot;box-sizing: border-box; color: rgb(91, 110, 136); margin-bottom: 0px;&quot;&gt;$34.00&lt;/span&gt;&lt;/li&gt;&lt;li style=&quot;box-sizing: border-box; color: rgb(91, 110, 136); margin-bottom: 0px; font-size: 0.875rem; position: relative; display: flex !important; padding-top: 0.75rem; padding-right: 0px !important; padding-bottom: 0.75rem; padding-left: 0px !important; background-color: rgb(255, 255, 255); border-width: 0px 0px 1px; border-style: solid; border-color: rgba(0, 0, 0, 0.125); border-image: initial; justify-content: space-between !important; align-items: center !important;&quot; class=&quot;list-group-item d-flex justify-content-between align-items-center px-0&quot;&gt;Payable amount&lt;span style=&quot;box-sizing: border-box; color: rgb(91, 110, 136); margin-bottom: 0px;&quot;&gt;$50.00&lt;/span&gt;&lt;/li&gt;&lt;li style=&quot;box-sizing: border-box; color: rgb(91, 110, 136); margin-bottom: 0px; font-size: 0.875rem; position: relative; display: flex !important; padding-top: 0.75rem; padding-right: 0px !important; padding-bottom: 0.75rem; padding-left: 0px !important; background-color: rgb(255, 255, 255); border-width: 0px 0px 1px; border-style: solid; border-color: rgba(0, 0, 0, 0.125); border-image: initial; justify-content: space-between !important; align-items: center !important;&quot; class=&quot;list-group-item d-flex justify-content-between align-items-center px-0&quot;&gt;Total Installment&lt;span style=&quot;box-sizing: border-box; color: rgb(91, 110, 136); margin-bottom: 0px;&quot;&gt;10&lt;/span&gt;&lt;/li&gt;&lt;li style=&quot;box-sizing: border-box; color: rgb(91, 110, 136); margin-bottom: 0px; font-size: 0.875rem; position: relative; display: flex !important; padding-top: 0.75rem; padding-right: 0px !important; padding-bottom: 0.75rem; padding-left: 0px !important; background-color: rgb(255, 255, 255); border: 0px solid rgba(0, 0, 0, 0.125); justify-content: space-between !important; align-items: center !important; border-bottom-right-radius: inherit; border-bottom-left-radius: inherit;&quot; class=&quot;list-group-item d-flex justify-content-between align-items-center px-0&quot;&gt;Late Fee&lt;span style=&quot;box-sizing: border-box; color: rgb(91, 110, 136); margin-bottom: 0px;&quot;&gt;$34.95&lt;/span&gt;&lt;/li&gt;&lt;/ul&gt;" style="text;whiteSpace=wrap;html=1;" vertex="1" parent="1">
                    <mxGeometry x="-291.000048828125" y="553.9999877929688" width="190" height="370" as="geometry"/>
                </mxCell>
            </root>
        </mxGraphModel>
    </diagram>
</mxfile>
